<svg xmlns="http://www.w3.org/2000/svg" xmlns:xlink="http://www.w3.org/1999/xlink" viewBox="0 0 641 141" ><rect x="20" y="0" width="20" height="20" style="fill:rgb(127,193,127);stroke:rgb(27,93,27)" transform=""></rect><rect x="20" y="20" width="20" height="20" style="fill:rgb(127,193,127);stroke:rgb(27,93,27)" transform=""></rect><rect x="20" y="40" width="20" height="20" style="fill:rgb(127,193,127);stroke:rgb(27,93,27)" transform=""></rect><rect x="20" y="60" width="20" height="20" style="fill:rgb(127,193,127);stroke:rgb(27,93,27)" transform=""></rect><rect x="20" y="80" width="20" height="20" style="fill:rgb(127,193,127);stroke:rgb(27,93,27)" transform=""></rect><rect x="20" y="100" width="20" height="20" style="fill:rgb(127,193,127);stroke:rgb(27,93,27)" transform=""></rect><rect x="20" y="120" width="20" height="20" style="fill:rgb(127,193,127);stroke:rgb(27,93,27)" transform=""></rect><rect x="40" y="0" width="20" height="20" style="fill:rgb(127,193,127);stroke:rgb(27,93,27)" transform=""></rect><rect x="40" y="20" width="20" height="20" style="fill:rgb(127,193,127);stroke:rgb(27,93,27)" transform=""></rect><rect x="40" y="40" width="20" height="20" style="fill:rgb(127,193,127);stroke:rgb(27,93,27)" transform=""></rect><rect x="40" y="60" width="20" height="20" style="fill:rgb(127,193,127);stroke:rgb(27,93,27)" transform=""></rect><rect x="40" y="80" width="20" height="20" style="fill:rgb(127,193,127);stroke:rgb(27,93,27)" transform=""></rect><rect x="40" y="100" width="20" height="20" style="fill:rgb(127,193,127);stroke:rgb(27,93,27)" transform=""></rect><rect x="40" y="120" width="20" height="20" style="fill:rgb(127,193,127);stroke:rgb(27,93,27)" transform=""></rect><rect x="60" y="0" width="20" height="20" style="fill:rgb(127,193,127);stroke:rgb(27,93,27)" transform=""></rect><rect x="60" y="20" width="20" height="20" style="fill:rgb(127,193,127);stroke:rgb(27,93,27)" transform=""></rect><rect x="60" y="40" width="20" height="20" style="fill:rgb(127,193,127);stroke:rgb(27,93,27)" transform=""></rect><rect x="60" y="60" width="20" height="20" style="fill:rgb(127,193,127);stroke:rgb(27,93,27)" transform=""></rect><rect x="60" y="80" width="20" height="20" style="fill:rgb(127,193,127);stroke:rgb(27,93,27)" transform=""></rect><rect x="60" y="100" width="20" height="20" style="fill:rgb(127,193,127);stroke:rgb(27,93,27)" transform=""></rect><rect x="60" y="120" width="20" height="20" style="fill:rgb(127,193,127);stroke:rgb(27,93,27)" transform=""></rect><rect x="80" y="0" width="20" height="20" style="fill:rgb(127,193,127);stroke:rgb(27,93,27)" transform=""></rect><rect x="80" y="20" width="20" height="20" style="fill:rgb(127,193,127);stroke:rgb(27,93,27)" transform=""></rect><rect x="80" y="40" width="20" height="20" style="fill:rgb(127,193,127);stroke:rgb(27,93,27)" transform=""></rect><rect x="80" y="60" width="20" height="20" style="fill:rgb(127,193,127);stroke:rgb(27,93,27)" transform=""></rect><rect x="80" y="80" width="20" height="20" style="fill:rgb(127,193,127);stroke:rgb(27,93,27)" transform=""></rect><rect x="80" y="100" width="20" height="20" style="fill:rgb(127,193,127);stroke:rgb(27,93,27)" transform=""></rect><rect x="80" y="120" width="20" height="20" style="fill:rgb(127,193,127);stroke:rgb(27,93,27)" transform=""></rect><rect x="100" y="0" width="20" height="20" style="fill:rgb(127,193,127);stroke:rgb(27,93,27)" transform=""></rect><rect x="100" y="20" width="20" height="20" style="fill:rgb(127,193,127);stroke:rgb(27,93,27)" transform=""></rect><rect x="100" y="40" width="20" height="20" style="fill:rgb(127,193,127);stroke:rgb(27,93,27)" transform=""></rect><rect x="100" y="60" width="20" height="20" style="fill:rgb(127,193,127);stroke:rgb(27,93,27)" transform=""></rect><rect x="100" y="80" width="20" height="20" style="fill:rgb(127,193,127);stroke:rgb(27,93,27)" transform=""></rect><rect x="100" y="100" width="20" height="20" style="fill:rgb(127,193,127);stroke:rgb(27,93,27)" transform=""></rect><rect x="100" y="120" width="20" height="20" style="fill:rgb(127,193,127);stroke:rgb(27,93,27)" transform=""></rect><rect x="120" y="0" width="20" height="20" style="fill:rgb(127,193,127);stroke:rgb(27,93,27)" transform=""></rect><rect x="120" y="20" width="20" height="20" style="fill:rgb(127,193,127);stroke:rgb(27,93,27)" transform=""></rect><rect x="120" y="40" width="20" height="20" style="fill:rgb(127,193,127);stroke:rgb(27,93,27)" transform=""></rect><rect x="120" y="60" width="20" height="20" style="fill:rgb(127,193,127);stroke:rgb(27,93,27)" transform=""></rect><rect x="120" y="80" width="20" height="20" style="fill:rgb(127,193,127);stroke:rgb(27,93,27)" transform=""></rect><rect x="120" y="100" width="20" height="20" style="fill:rgb(127,193,127);stroke:rgb(27,93,27)" transform=""></rect><rect x="120" y="120" width="20" height="20" style="fill:rgb(127,193,127);stroke:rgb(27,93,27)" transform=""></rect><rect x="140" y="0" width="20" height="20" style="fill:rgb(127,193,127);stroke:rgb(27,93,27)" transform=""></rect><rect x="140" y="20" width="20" height="20" style="fill:rgb(127,193,127);stroke:rgb(27,93,27)" transform=""></rect><rect x="140" y="40" width="20" height="20" style="fill:rgb(127,193,127);stroke:rgb(27,93,27)" transform=""></rect><rect x="140" y="60" width="20" height="20" style="fill:rgb(127,193,127);stroke:rgb(27,93,27)" transform=""></rect><rect x="140" y="80" width="20" height="20" style="fill:rgb(127,193,127);stroke:rgb(27,93,27)" transform=""></rect><rect x="140" y="100" width="20" height="20" style="fill:rgb(127,193,127);stroke:rgb(27,93,27)" transform=""></rect><rect x="140" y="120" width="20" height="20" style="fill:rgb(127,193,127);stroke:rgb(27,93,27)" transform=""></rect><circle cx="90" cy="70" r="7" style="fill:rgb(10,10,10);stroke:rgb(9,9,9)" transform=""></circle><polygon points="76,67 70,73 50,73 50,76 40,70 50,64 50,67 " style="fill:rgb(40,55,167);stroke:rgb(9,9,67)" transform=""></polygon><polygon points="76,67 70,73 50,73 50,76 40,70 50,64 50,67 " style="fill:rgb(40,55,167);stroke:rgb(9,9,67)" transform="rotate(180,90,70)"></polygon><rect x="180" y="0" width="20" height="20" style="fill:rgb(127,193,127);stroke:rgb(27,93,27)" transform=""></rect><rect x="180" y="20" width="20" height="20" style="fill:rgb(127,193,127);stroke:rgb(27,93,27)" transform=""></rect><rect x="180" y="40" width="20" height="20" style="fill:rgb(127,193,127);stroke:rgb(27,93,27)" transform=""></rect><rect x="180" y="60" width="20" height="20" style="fill:rgb(127,193,127);stroke:rgb(27,93,27)" transform=""></rect><rect x="180" y="80" width="20" height="20" style="fill:rgb(127,193,127);stroke:rgb(27,93,27)" transform=""></rect><rect x="180" y="100" width="20" height="20" style="fill:rgb(127,193,127);stroke:rgb(27,93,27)" transform=""></rect><rect x="180" y="120" width="20" height="20" style="fill:rgb(127,193,127);stroke:rgb(27,93,27)" transform=""></rect><rect x="200" y="0" width="20" height="20" style="fill:rgb(127,193,127);stroke:rgb(27,93,27)" transform=""></rect><rect x="200" y="20" width="20" height="20" style="fill:rgb(127,193,127);stroke:rgb(27,93,27)" transform=""></rect><rect x="200" y="40" width="20" height="20" style="fill:rgb(127,193,127);stroke:rgb(27,93,27)" transform=""></rect><rect x="200" y="60" width="20" height="20" style="fill:rgb(127,193,127);stroke:rgb(27,93,27)" transform=""></rect><rect x="200" y="80" width="20" height="20" style="fill:rgb(127,193,127);stroke:rgb(27,93,27)" transform=""></rect><rect x="200" y="100" width="20" height="20" style="fill:rgb(127,193,127);stroke:rgb(27,93,27)" transform=""></rect><rect x="200" y="120" width="20" height="20" style="fill:rgb(127,193,127);stroke:rgb(27,93,27)" transform=""></rect><rect x="220" y="0" width="20" height="20" style="fill:rgb(127,193,127);stroke:rgb(27,93,27)" transform=""></rect><rect x="220" y="20" width="20" height="20" style="fill:rgb(127,193,127);stroke:rgb(27,93,27)" transform=""></rect><rect x="220" y="40" width="20" height="20" style="fill:rgb(127,193,127);stroke:rgb(27,93,27)" transform=""></rect><rect x="220" y="60" width="20" height="20" style="fill:rgb(127,193,127);stroke:rgb(27,93,27)" transform=""></rect><rect x="220" y="80" width="20" height="20" style="fill:rgb(127,193,127);stroke:rgb(27,93,27)" transform=""></rect><rect x="220" y="100" width="20" height="20" style="fill:rgb(127,193,127);stroke:rgb(27,93,27)" transform=""></rect><rect x="220" y="120" width="20" height="20" style="fill:rgb(127,193,127);stroke:rgb(27,93,27)" transform=""></rect><rect x="240" y="0" width="20" height="20" style="fill:rgb(127,193,127);stroke:rgb(27,93,27)" transform=""></rect><rect x="240" y="20" width="20" height="20" style="fill:rgb(127,193,127);stroke:rgb(27,93,27)" transform=""></rect><rect x="240" y="40" width="20" height="20" style="fill:rgb(127,193,127);stroke:rgb(27,93,27)" transform=""></rect><rect x="240" y="60" width="20" height="20" style="fill:rgb(127,193,127);stroke:rgb(27,93,27)" transform=""></rect><rect x="240" y="80" width="20" height="20" style="fill:rgb(127,193,127);stroke:rgb(27,93,27)" transform=""></rect><rect x="240" y="100" width="20" height="20" style="fill:rgb(127,193,127);stroke:rgb(27,93,27)" transform=""></rect><rect x="240" y="120" width="20" height="20" style="fill:rgb(127,193,127);stroke:rgb(27,93,27)" transform=""></rect><rect x="260" y="0" width="20" height="20" style="fill:rgb(127,193,127);stroke:rgb(27,93,27)" transform=""></rect><rect x="260" y="20" width="20" height="20" style="fill:rgb(127,193,127);stroke:rgb(27,93,27)" transform=""></rect><rect x="260" y="40" width="20" height="20" style="fill:rgb(127,193,127);stroke:rgb(27,93,27)" transform=""></rect><rect x="260" y="60" width="20" height="20" style="fill:rgb(127,193,127);stroke:rgb(27,93,27)" transform=""></rect><rect x="260" y="80" width="20" height="20" style="fill:rgb(127,193,127);stroke:rgb(27,93,27)" transform=""></rect><rect x="260" y="100" width="20" height="20" style="fill:rgb(127,193,127);stroke:rgb(27,93,27)" transform=""></rect><rect x="260" y="120" width="20" height="20" style="fill:rgb(127,193,127);stroke:rgb(27,93,27)" transform=""></rect><rect x="280" y="0" width="20" height="20" style="fill:rgb(127,193,127);stroke:rgb(27,93,27)" transform=""></rect><rect x="280" y="20" width="20" height="20" style="fill:rgb(127,193,127);stroke:rgb(27,93,27)" transform=""></rect><rect x="280" y="40" width="20" height="20" style="fill:rgb(127,193,127);stroke:rgb(27,93,27)" transform=""></rect><rect x="280" y="60" width="20" height="20" style="fill:rgb(127,193,127);stroke:rgb(27,93,27)" transform=""></rect><rect x="280" y="80" width="20" height="20" style="fill:rgb(127,193,127);stroke:rgb(27,93,27)" transform=""></rect><rect x="280" y="100" width="20" height="20" style="fill:rgb(127,193,127);stroke:rgb(27,93,27)" transform=""></rect><rect x="280" y="120" width="20" height="20" style="fill:rgb(127,193,127);stroke:rgb(27,93,27)" transform=""></rect><rect x="300" y="0" width="20" height="20" style="fill:rgb(127,193,127);stroke:rgb(27,93,27)" transform=""></rect><rect x="300" y="20" width="20" height="20" style="fill:rgb(127,193,127);stroke:rgb(27,93,27)" transform=""></rect><rect x="300" y="40" width="20" height="20" style="fill:rgb(127,193,127);stroke:rgb(27,93,27)" transform=""></rect><rect x="300" y="60" width="20" height="20" style="fill:rgb(127,193,127);stroke:rgb(27,93,27)" transform=""></rect><rect x="300" y="80" width="20" height="20" style="fill:rgb(127,193,127);stroke:rgb(27,93,27)" transform=""></rect><rect x="300" y="100" width="20" height="20" style="fill:rgb(127,193,127);stroke:rgb(27,93,27)" transform=""></rect><rect x="300" y="120" width="20" height="20" style="fill:rgb(127,193,127);stroke:rgb(27,93,27)" transform=""></rect><circle cx="250" cy="70" r="7" style="fill:rgb(10,10,10);stroke:rgb(9,9,9)" transform=""></circle><polygon points="236,67 230,73 210,73 210,76 200,70 210,64 210,67 " style="fill:rgb(40,167,55);stroke:rgb(9,67,9)" transform="rotate(90,250,70)"></polygon><polygon points="236,67 230,73 210,73 210,76 200,70 210,64 210,67 " style="fill:rgb(40,167,55);stroke:rgb(9,67,9)" transform="rotate(-90,250,70)"></polygon><rect x="340" y="0" width="20" height="20" style="fill:rgb(127,193,127);stroke:rgb(27,93,27)" transform=""></rect><rect x="340" y="20" width="20" height="20" style="fill:rgb(127,193,127);stroke:rgb(27,93,27)" transform=""></rect><rect x="340" y="40" width="20" height="20" style="fill:rgb(127,193,127);stroke:rgb(27,93,27)" transform=""></rect><rect x="340" y="60" width="20" height="20" style="fill:rgb(127,193,127);stroke:rgb(27,93,27)" transform=""></rect><rect x="340" y="80" width="20" height="20" style="fill:rgb(127,193,127);stroke:rgb(27,93,27)" transform=""></rect><rect x="340" y="100" width="20" height="20" style="fill:rgb(127,193,127);stroke:rgb(27,93,27)" transform=""></rect><rect x="340" y="120" width="20" height="20" style="fill:rgb(127,193,127);stroke:rgb(27,93,27)" transform=""></rect><rect x="360" y="0" width="20" height="20" style="fill:rgb(127,193,127);stroke:rgb(27,93,27)" transform=""></rect><rect x="360" y="20" width="20" height="20" style="fill:rgb(127,193,127);stroke:rgb(27,93,27)" transform=""></rect><rect x="360" y="40" width="20" height="20" style="fill:rgb(127,193,127);stroke:rgb(27,93,27)" transform=""></rect><rect x="360" y="60" width="20" height="20" style="fill:rgb(127,193,127);stroke:rgb(27,93,27)" transform=""></rect><rect x="360" y="80" width="20" height="20" style="fill:rgb(127,193,127);stroke:rgb(27,93,27)" transform=""></rect><rect x="360" y="100" width="20" height="20" style="fill:rgb(127,193,127);stroke:rgb(27,93,27)" transform=""></rect><rect x="360" y="120" width="20" height="20" style="fill:rgb(127,193,127);stroke:rgb(27,93,27)" transform=""></rect><rect x="380" y="0" width="20" height="20" style="fill:rgb(127,193,127);stroke:rgb(27,93,27)" transform=""></rect><rect x="380" y="20" width="20" height="20" style="fill:rgb(127,193,127);stroke:rgb(27,93,27)" transform=""></rect><rect x="380" y="40" width="20" height="20" style="fill:rgb(127,193,127);stroke:rgb(27,93,27)" transform=""></rect><rect x="380" y="60" width="20" height="20" style="fill:rgb(127,193,127);stroke:rgb(27,93,27)" transform=""></rect><rect x="380" y="80" width="20" height="20" style="fill:rgb(127,193,127);stroke:rgb(27,93,27)" transform=""></rect><rect x="380" y="100" width="20" height="20" style="fill:rgb(127,193,127);stroke:rgb(27,93,27)" transform=""></rect><rect x="380" y="120" width="20" height="20" style="fill:rgb(127,193,127);stroke:rgb(27,93,27)" transform=""></rect><rect x="400" y="0" width="20" height="20" style="fill:rgb(127,193,127);stroke:rgb(27,93,27)" transform=""></rect><rect x="400" y="20" width="20" height="20" style="fill:rgb(127,193,127);stroke:rgb(27,93,27)" transform=""></rect><rect x="400" y="40" width="20" height="20" style="fill:rgb(127,193,127);stroke:rgb(27,93,27)" transform=""></rect><rect x="400" y="60" width="20" height="20" style="fill:rgb(127,193,127);stroke:rgb(27,93,27)" transform=""></rect><rect x="400" y="80" width="20" height="20" style="fill:rgb(127,193,127);stroke:rgb(27,93,27)" transform=""></rect><rect x="400" y="100" width="20" height="20" style="fill:rgb(127,193,127);stroke:rgb(27,93,27)" transform=""></rect><rect x="400" y="120" width="20" height="20" style="fill:rgb(127,193,127);stroke:rgb(27,93,27)" transform=""></rect><rect x="420" y="0" width="20" height="20" style="fill:rgb(127,193,127);stroke:rgb(27,93,27)" transform=""></rect><rect x="420" y="20" width="20" height="20" style="fill:rgb(127,193,127);stroke:rgb(27,93,27)" transform=""></rect><rect x="420" y="40" width="20" height="20" style="fill:rgb(127,193,127);stroke:rgb(27,93,27)" transform=""></rect><rect x="420" y="60" width="20" height="20" style="fill:rgb(127,193,127);stroke:rgb(27,93,27)" transform=""></rect><rect x="420" y="80" width="20" height="20" style="fill:rgb(127,193,127);stroke:rgb(27,93,27)" transform=""></rect><rect x="420" y="100" width="20" height="20" style="fill:rgb(127,193,127);stroke:rgb(27,93,27)" transform=""></rect><rect x="420" y="120" width="20" height="20" style="fill:rgb(127,193,127);stroke:rgb(27,93,27)" transform=""></rect><rect x="440" y="0" width="20" height="20" style="fill:rgb(127,193,127);stroke:rgb(27,93,27)" transform=""></rect><rect x="440" y="20" width="20" height="20" style="fill:rgb(127,193,127);stroke:rgb(27,93,27)" transform=""></rect><rect x="440" y="40" width="20" height="20" style="fill:rgb(127,193,127);stroke:rgb(27,93,27)" transform=""></rect><rect x="440" y="60" width="20" height="20" style="fill:rgb(127,193,127);stroke:rgb(27,93,27)" transform=""></rect><rect x="440" y="80" width="20" height="20" style="fill:rgb(127,193,127);stroke:rgb(27,93,27)" transform=""></rect><rect x="440" y="100" width="20" height="20" style="fill:rgb(127,193,127);stroke:rgb(27,93,27)" transform=""></rect><rect x="440" y="120" width="20" height="20" style="fill:rgb(127,193,127);stroke:rgb(27,93,27)" transform=""></rect><rect x="460" y="0" width="20" height="20" style="fill:rgb(127,193,127);stroke:rgb(27,93,27)" transform=""></rect><rect x="460" y="20" width="20" height="20" style="fill:rgb(127,193,127);stroke:rgb(27,93,27)" transform=""></rect><rect x="460" y="40" width="20" height="20" style="fill:rgb(127,193,127);stroke:rgb(27,93,27)" transform=""></rect><rect x="460" y="60" width="20" height="20" style="fill:rgb(127,193,127);stroke:rgb(27,93,27)" transform=""></rect><rect x="460" y="80" width="20" height="20" style="fill:rgb(127,193,127);stroke:rgb(27,93,27)" transform=""></rect><rect x="460" y="100" width="20" height="20" style="fill:rgb(127,193,127);stroke:rgb(27,93,27)" transform=""></rect><rect x="460" y="120" width="20" height="20" style="fill:rgb(127,193,127);stroke:rgb(27,93,27)" transform=""></rect><circle cx="410" cy="70" r="7" style="fill:rgb(10,10,10);stroke:rgb(9,9,9)" transform=""></circle><polygon points="396,67 390,73 370,73 370,76 360,70 370,64 370,67 " style="fill:rgb(167,40,55);stroke:rgb(67,9,9)" transform="rotate(45,410,70)"></polygon><polygon points="396,67 390,73 370,73 370,76 360,70 370,64 370,67 " style="fill:rgb(167,40,55);stroke:rgb(67,9,9)" transform="rotate(-135,410,70)"></polygon><rect x="500" y="0" width="20" height="20" style="fill:rgb(127,193,127);stroke:rgb(27,93,27)" transform=""></rect><rect x="500" y="20" width="20" height="20" style="fill:rgb(127,193,127);stroke:rgb(27,93,27)" transform=""></rect><rect x="500" y="40" width="20" height="20" style="fill:rgb(127,193,127);stroke:rgb(27,93,27)" transform=""></rect><rect x="500" y="60" width="20" height="20" style="fill:rgb(127,193,127);stroke:rgb(27,93,27)" transform=""></rect><rect x="500" y="80" width="20" height="20" style="fill:rgb(127,193,127);stroke:rgb(27,93,27)" transform=""></rect><rect x="500" y="100" width="20" height="20" style="fill:rgb(127,193,127);stroke:rgb(27,93,27)" transform=""></rect><rect x="500" y="120" width="20" height="20" style="fill:rgb(127,193,127);stroke:rgb(27,93,27)" transform=""></rect><rect x="520" y="0" width="20" height="20" style="fill:rgb(127,193,127);stroke:rgb(27,93,27)" transform=""></rect><rect x="520" y="20" width="20" height="20" style="fill:rgb(127,193,127);stroke:rgb(27,93,27)" transform=""></rect><rect x="520" y="40" width="20" height="20" style="fill:rgb(127,193,127);stroke:rgb(27,93,27)" transform=""></rect><rect x="520" y="60" width="20" height="20" style="fill:rgb(127,193,127);stroke:rgb(27,93,27)" transform=""></rect><rect x="520" y="80" width="20" height="20" style="fill:rgb(127,193,127);stroke:rgb(27,93,27)" transform=""></rect><rect x="520" y="100" width="20" height="20" style="fill:rgb(127,193,127);stroke:rgb(27,93,27)" transform=""></rect><rect x="520" y="120" width="20" height="20" style="fill:rgb(127,193,127);stroke:rgb(27,93,27)" transform=""></rect><rect x="540" y="0" width="20" height="20" style="fill:rgb(127,193,127);stroke:rgb(27,93,27)" transform=""></rect><rect x="540" y="20" width="20" height="20" style="fill:rgb(127,193,127);stroke:rgb(27,93,27)" transform=""></rect><rect x="540" y="40" width="20" height="20" style="fill:rgb(127,193,127);stroke:rgb(27,93,27)" transform=""></rect><rect x="540" y="60" width="20" height="20" style="fill:rgb(127,193,127);stroke:rgb(27,93,27)" transform=""></rect><rect x="540" y="80" width="20" height="20" style="fill:rgb(127,193,127);stroke:rgb(27,93,27)" transform=""></rect><rect x="540" y="100" width="20" height="20" style="fill:rgb(127,193,127);stroke:rgb(27,93,27)" transform=""></rect><rect x="540" y="120" width="20" height="20" style="fill:rgb(127,193,127);stroke:rgb(27,93,27)" transform=""></rect><rect x="560" y="0" width="20" height="20" style="fill:rgb(127,193,127);stroke:rgb(27,93,27)" transform=""></rect><rect x="560" y="20" width="20" height="20" style="fill:rgb(127,193,127);stroke:rgb(27,93,27)" transform=""></rect><rect x="560" y="40" width="20" height="20" style="fill:rgb(127,193,127);stroke:rgb(27,93,27)" transform=""></rect><rect x="560" y="60" width="20" height="20" style="fill:rgb(127,193,127);stroke:rgb(27,93,27)" transform=""></rect><rect x="560" y="80" width="20" height="20" style="fill:rgb(127,193,127);stroke:rgb(27,93,27)" transform=""></rect><rect x="560" y="100" width="20" height="20" style="fill:rgb(127,193,127);stroke:rgb(27,93,27)" transform=""></rect><rect x="560" y="120" width="20" height="20" style="fill:rgb(127,193,127);stroke:rgb(27,93,27)" transform=""></rect><rect x="580" y="0" width="20" height="20" style="fill:rgb(127,193,127);stroke:rgb(27,93,27)" transform=""></rect><rect x="580" y="20" width="20" height="20" style="fill:rgb(127,193,127);stroke:rgb(27,93,27)" transform=""></rect><rect x="580" y="40" width="20" height="20" style="fill:rgb(127,193,127);stroke:rgb(27,93,27)" transform=""></rect><rect x="580" y="60" width="20" height="20" style="fill:rgb(127,193,127);stroke:rgb(27,93,27)" transform=""></rect><rect x="580" y="80" width="20" height="20" style="fill:rgb(127,193,127);stroke:rgb(27,93,27)" transform=""></rect><rect x="580" y="100" width="20" height="20" style="fill:rgb(127,193,127);stroke:rgb(27,93,27)" transform=""></rect><rect x="580" y="120" width="20" height="20" style="fill:rgb(127,193,127);stroke:rgb(27,93,27)" transform=""></rect><rect x="600" y="0" width="20" height="20" style="fill:rgb(127,193,127);stroke:rgb(27,93,27)" transform=""></rect><rect x="600" y="20" width="20" height="20" style="fill:rgb(127,193,127);stroke:rgb(27,93,27)" transform=""></rect><rect x="600" y="40" width="20" height="20" style="fill:rgb(127,193,127);stroke:rgb(27,93,27)" transform=""></rect><rect x="600" y="60" width="20" height="20" style="fill:rgb(127,193,127);stroke:rgb(27,93,27)" transform=""></rect><rect x="600" y="80" width="20" height="20" style="fill:rgb(127,193,127);stroke:rgb(27,93,27)" transform=""></rect><rect x="600" y="100" width="20" height="20" style="fill:rgb(127,193,127);stroke:rgb(27,93,27)" transform=""></rect><rect x="600" y="120" width="20" height="20" style="fill:rgb(127,193,127);stroke:rgb(27,93,27)" transform=""></rect><rect x="620" y="0" width="20" height="20" style="fill:rgb(127,193,127);stroke:rgb(27,93,27)" transform=""></rect><rect x="620" y="20" width="20" height="20" style="fill:rgb(127,193,127);stroke:rgb(27,93,27)" transform=""></rect><rect x="620" y="40" width="20" height="20" style="fill:rgb(127,193,127);stroke:rgb(27,93,27)" transform=""></rect><rect x="620" y="60" width="20" height="20" style="fill:rgb(127,193,127);stroke:rgb(27,93,27)" transform=""></rect><rect x="620" y="80" width="20" height="20" style="fill:rgb(127,193,127);stroke:rgb(27,93,27)" transform=""></rect><rect x="620" y="100" width="20" height="20" style="fill:rgb(127,193,127);stroke:rgb(27,93,27)" transform=""></rect><rect x="620" y="120" width="20" height="20" style="fill:rgb(127,193,127);stroke:rgb(27,93,27)" transform=""></rect><circle cx="570" cy="70" r="7" style="fill:rgb(10,10,10);stroke:rgb(9,9,9)" transform=""></circle><polygon points="556,67 550,73 530,73 530,76 520,70 530,64 530,67 " style="fill:rgb(100,80,20);stroke:rgb(9,9,9)" transform="rotate(135,570,70)"></polygon><polygon points="556,67 550,73 530,73 530,76 520,70 530,64 530,67 " style="fill:rgb(100,80,20);stroke:rgb(9,9,9)" transform="rotate(-45,570,70)"></polygon></svg>
